<?xml version="1.0" standalone="no"?>
<!DOCTYPE svg PUBLIC "-//W3C//DTD SVG 20010904//EN"
 "http://www.w3.org/TR/2001/REC-SVG-20010904/DTD/svg10.dtd">
<svg version="1.0" xmlns="http://www.w3.org/2000/svg"
 width="800.000000pt" height="800.000000pt" viewBox="0 0 800.000000 800.000000"
 preserveAspectRatio="xMidYMid meet">
<metadata>
Created by potrace 1.11, written by Peter Selinger 2001-2013
</metadata>
<g transform="translate(0.000000,800.000000) scale(0.100000,-0.100000)"
fill="#000000" stroke="none">
<path d="M0 4000 l0 -4000 4000 0 4000 0 0 4000 0 4000 -4000 0 -4000 0 0
-4000z m4809 3520 c17 -28 31 -60 31 -71 0 -37 -68 -311 -100 -404 -30 -85
-32 -99 -35 -270 -4 -198 -16 -263 -74 -389 -22 -49 -34 -95 -42 -162 -5 -53
-22 -127 -38 -171 -16 -43 -34 -112 -41 -153 -7 -41 -25 -120 -41 -174 -24
-82 -30 -126 -36 -250 -6 -146 -7 -154 -43 -236 -25 -56 -40 -109 -45 -155 -4
-38 -19 -119 -35 -180 -15 -60 -31 -139 -35 -175 -4 -36 -12 -74 -18 -85 -6
-11 -10 -25 -9 -31 1 -7 -2 -24 -8 -40 -8 -21 -14 -24 -22 -16 -21 21 -38 13
-38 -17 0 -28 3 -30 45 -37 25 -3 53 -3 62 1 10 5 22 7 27 6 4 -1 13 3 20 8 6
5 32 12 58 16 44 7 46 6 41 -14 -5 -18 -1 -21 27 -21 24 0 31 4 26 15 -4 12 3
15 37 15 67 -1 282 -41 297 -56 29 -30 -7 -204 -42 -204 -20 0 -24 -20 -7 -37
21 -21 -27 -168 -82 -250 -63 -93 -113 -213 -135 -323 -9 -47 -28 -116 -41
-155 -26 -72 -90 -206 -103 -215 -4 -3 -15 -45 -25 -95 -13 -63 -33 -117 -66
-181 -26 -50 -75 -160 -109 -245 -34 -85 -81 -188 -104 -229 -51 -88 -89 -200
-150 -440 -58 -227 -87 -300 -145 -374 -62 -80 -58 -69 -72 -172 -10 -75 -20
-106 -67 -199 -130 -259 -170 -359 -177 -442 -7 -71 -14 -92 -86 -233 -65
-126 -89 -164 -131 -202 -29 -27 -57 -48 -62 -48 -14 0 -82 107 -78 123 1 7
17 47 34 90 28 72 30 85 25 160 -6 78 -3 91 48 267 92 319 95 333 95 434 0 52
7 124 15 161 9 36 20 110 25 165 8 84 15 111 48 177 22 45 46 114 56 163 10
47 29 126 43 175 21 74 24 104 20 170 -5 77 -4 83 34 165 36 77 41 95 49 205
16 206 40 336 93 510 28 90 51 214 42 224 -4 3 -44 8 -91 10 -63 2 -104 -2
-166 -19 l-83 -22 -100 25 c-55 14 -116 28 -136 31 l-36 6 5 53 c3 36 17 76
47 132 32 59 48 104 60 170 17 90 53 206 95 300 12 28 44 103 71 168 26 64 68
146 93 182 37 53 48 81 65 159 11 52 40 143 65 203 24 59 52 131 62 158 10 28
38 86 63 129 24 43 57 124 73 178 15 55 39 121 53 147 31 63 97 255 120 351
11 50 44 128 100 235 45 88 97 206 114 262 24 75 38 102 52 106 15 4 18 11 13
35 -6 31 11 73 71 166 36 56 72 166 104 314 18 80 28 104 74 170 36 52 61 103
77 156 23 73 27 80 75 111 27 19 55 34 62 34 6 1 25 -22 42 -49z m-1715 -740
c1 -64 -12 -239 -19 -249 -2 -4 -11 -72 -19 -152 -18 -169 -43 -274 -85 -358
-27 -53 -31 -71 -31 -144 0 -108 -17 -197 -37 -190 -11 4 -12 -3 -7 -35 9 -57
-29 -208 -75 -301 -43 -85 -76 -221 -86 -351 -7 -95 -30 -210 -75 -379 -17
-62 -33 -137 -36 -166 l-6 -52 111 15 c107 14 116 14 224 -7 62 -12 120 -24
129 -27 48 -14 21 -178 -49 -291 -27 -44 -54 -105 -68 -155 -12 -46 -39 -116
-59 -156 -31 -61 -39 -72 -52 -62 -7 7 -14 23 -14 36 0 31 -17 39 -30 15 -15
-30 -2 -101 20 -101 9 0 19 -2 22 -5 7 -7 -27 -151 -39 -167 -6 -7 -13 -36
-16 -65 -5 -42 -16 -65 -64 -130 -53 -72 -59 -85 -71 -158 -18 -111 -43 -183
-129 -378 -41 -93 -87 -204 -103 -247 -16 -43 -45 -111 -66 -152 -45 -89 -88
-214 -114 -328 -10 -47 -34 -119 -53 -160 -18 -41 -44 -109 -56 -150 -13 -41
-30 -88 -39 -105 -9 -16 -17 -37 -19 -46 -1 -8 -25 -65 -54 -125 -28 -60 -61
-147 -72 -193 l-22 -85 -50 -17 c-68 -24 -68 -24 -104 21 l-32 40 21 79 c12
49 20 112 20 164 0 59 4 87 13 91 8 4 9 8 1 11 -8 4 -7 27 2 82 11 60 24 94
59 150 l45 74 0 97 c0 83 5 111 30 182 24 69 30 101 30 172 0 48 5 90 10 93 6
3 10 21 10 40 0 40 54 284 79 357 28 83 59 235 66 326 5 70 12 96 44 160 34
67 41 94 55 207 9 72 19 147 22 168 l6 37 -55 0 c-30 0 -69 3 -86 6 -28 6 -30
8 -14 19 15 11 15 15 4 29 -20 24 -31 19 -31 -13 l0 -28 -96 -11 c-89 -10 -96
-10 -115 9 -21 21 -44 16 -35 -8 5 -11 2 -13 -11 -8 -10 4 -26 10 -37 13 -38
10 -3 154 82 342 16 36 39 101 52 145 16 55 40 104 76 157 49 72 53 82 59 155
6 65 20 108 82 258 41 99 111 259 156 355 64 137 83 169 85 148 3 -29 32 -40
32 -13 0 9 10 19 23 24 90 36 99 42 87 56 -14 17 -56 20 -65 5 -8 -13 -66 -43
-72 -37 -2 3 5 23 15 44 11 21 23 55 27 75 5 24 11 35 20 32 7 -3 16 -1 20 5
3 6 -1 14 -10 17 -20 8 -15 37 27 154 29 79 101 214 135 252 8 9 10 19 5 22
-17 10 21 119 68 196 40 63 49 88 60 160 11 73 19 96 61 163 47 74 92 200 128
352 11 46 16 52 69 82 l57 32 14 -32 c8 -18 15 -57 15 -87z m3120 51 l38 -39
-7 -74 c-10 -112 -50 -257 -100 -359 -25 -51 -45 -100 -45 -110 0 -28 -11 -49
-22 -42 -7 4 -9 -4 -5 -22 5 -31 -16 -266 -33 -355 -16 -85 -48 -156 -76 -169
-21 -9 -23 -14 -14 -30 13 -25 13 -98 0 -106 -6 -4 -7 -12 -3 -18 4 -7 6 -64
4 -127 -3 -111 -5 -118 -43 -195 -37 -72 -43 -96 -65 -250 -18 -125 -33 -194
-59 -263 -27 -74 -34 -107 -34 -166 l0 -73 60 -7 c33 -4 131 -6 217 -5 133 1
213 -5 213 -16 0 -1 -24 -53 -53 -116 -37 -78 -59 -143 -71 -204 -34 -172 -54
-241 -93 -320 -22 -44 -48 -102 -58 -130 -10 -27 -22 -54 -27 -60 -4 -5 -8
-15 -8 -22 0 -8 -20 -49 -44 -91 -31 -53 -46 -94 -51 -132 -11 -91 -21 -118
-73 -188 -59 -80 -103 -195 -131 -342 -30 -155 -51 -210 -109 -283 -47 -58
-55 -77 -86 -188 -18 -68 -37 -140 -41 -159 -4 -19 -28 -70 -52 -112 -36 -63
-47 -93 -58 -166 -11 -76 -23 -108 -86 -233 -54 -109 -77 -165 -90 -231 -21
-102 -79 -223 -136 -287 l-40 -45 -27 59 -27 60 17 100 c9 55 20 109 24 120 4
12 29 115 55 229 44 198 46 213 40 306 l-7 97 35 64 c49 89 87 234 87 334 0
66 6 95 30 159 29 74 31 91 36 245 5 148 10 184 45 326 21 88 45 206 54 262 8
56 26 132 39 169 14 38 24 69 23 71 -1 1 -95 6 -209 12 -131 6 -214 15 -227
23 -11 6 -27 28 -36 49 -16 36 -16 37 15 98 17 35 44 98 60 141 16 43 33 87
38 97 10 18 86 264 97 314 4 14 33 56 66 94 33 38 62 79 64 90 3 11 9 49 15
85 16 97 160 465 278 710 35 74 75 175 87 224 17 65 36 107 71 160 41 61 52
87 74 186 23 102 28 115 48 118 25 4 30 36 8 49 -26 14 42 198 111 301 64 95
105 201 123 319 l12 73 41 10 c23 6 47 13 52 15 23 8 33 3 69 -34z"/>
<path d="M4555 7160 c-3 -5 1 -10 9 -10 8 0 18 5 21 10 3 6 -1 10 -9 10 -8 0
-18 -4 -21 -10z"/>
<path d="M4305 6240 c-3 -5 -3 -15 1 -21 6 -11 23 6 24 24 0 10 -18 9 -25 -3z"/>
<path d="M3960 5675 c0 -8 7 -15 15 -15 8 0 15 7 15 15 0 8 -7 15 -15 15 -8 0
-15 -7 -15 -15z"/>
<path d="M4004 4927 c-16 -18 -18 -27 -10 -50 14 -38 30 -28 37 22 7 50 -1 58
-27 28z"/>
<path d="M4042 4824 c2 -11 11 -20 22 -22 13 -3 17 1 14 14 -2 11 -11 20 -22
22 -13 3 -17 -1 -14 -14z"/>
<path d="M4227 4734 c-14 -14 -7 -35 11 -32 9 2 17 10 17 17 0 16 -18 25 -28
15z"/>
<path d="M3606 4715 c-9 -24 -8 -25 15 -25 14 0 19 5 17 17 -4 23 -24 27 -32
8z"/>
<path d="M3550 4629 c0 -22 25 -48 48 -49 19 0 14 34 -8 53 -27 23 -40 21 -40
-4z"/>
<path d="M3856 4631 c-19 -21 -18 -62 2 -69 6 -2 12 3 12 11 0 7 9 22 19 31
20 19 18 46 -4 46 -6 0 -20 -9 -29 -19z"/>
<path d="M4042 4568 c2 -13 8 -23 13 -23 6 0 11 10 13 23 2 15 -2 22 -13 22
-11 0 -15 -7 -13 -22z"/>
<path d="M3811 4501 c-14 -26 5 -40 25 -19 13 13 13 16 0 27 -12 10 -17 9 -25
-8z"/>
<path d="M4140 4506 c0 -9 7 -16 16 -16 9 0 14 5 12 12 -6 18 -28 21 -28 4z"/>
<path d="M4232 4458 c5 -15 37 -18 41 -3 1 6 -9 12 -22 13 -16 3 -22 -1 -19
-10z"/>
<path d="M4320 4441 c0 -12 6 -21 16 -21 9 0 14 7 12 17 -5 25 -28 28 -28 4z"/>
<path d="M3480 4440 c0 -5 5 -10 10 -10 6 0 10 5 10 10 0 6 -4 10 -10 10 -5 0
-10 -4 -10 -10z"/>
<path d="M3780 4434 c0 -9 5 -14 12 -12 18 6 21 28 4 28 -9 0 -16 -7 -16 -16z"/>
<path d="M4367 4403 c-12 -21 -18 -73 -8 -73 6 0 11 5 11 12 0 6 7 19 16 29 9
10 13 23 9 28 -7 13 -22 14 -28 4z"/>
<path d="M4695 4388 c4 -13 7 -32 8 -43 2 -22 15 -35 35 -35 17 0 15 25 -3 40
-8 7 -15 23 -15 36 0 15 -6 24 -16 24 -12 0 -15 -6 -9 -22z"/>
<path d="M3830 4365 c0 -8 7 -15 15 -15 8 0 15 7 15 15 0 8 -7 15 -15 15 -8 0
-15 -7 -15 -15z"/>
<path d="M4270 4346 c0 -21 6 -36 16 -40 8 -3 12 -11 9 -17 -4 -5 1 -16 11
-24 25 -18 10 -31 -20 -17 -19 9 -25 8 -30 -4 -3 -8 -17 -14 -31 -14 -28 0
-32 -11 -12 -29 9 -7 34 -8 73 -3 59 7 59 7 55 37 -3 17 -5 46 -5 65 -1 25 -9
41 -27 58 -35 29 -39 28 -39 -12z"/>
<path d="M3962 4358 c6 -18 28 -21 28 -4 0 9 -7 16 -16 16 -9 0 -14 -5 -12
-12z"/>
<path d="M4500 4355 c0 -16 27 -32 37 -21 7 7 -16 36 -28 36 -5 0 -9 -7 -9
-15z"/>
<path d="M3920 4331 c0 -15 6 -21 21 -21 14 0 19 5 17 17 -5 26 -38 29 -38 4z"/>
<path d="M4000 4315 c-14 -44 -1 -67 25 -45 11 9 14 22 10 39 -11 43 -22 45
-35 6z"/>
<path d="M4220 4330 c0 -5 7 -10 15 -10 8 0 15 5 15 10 0 6 -7 10 -15 10 -8 0
-15 -4 -15 -10z"/>
<path d="M4166 4281 c-9 -14 4 -41 21 -41 9 0 13 8 11 22 -3 23 -23 35 -32 19z"/>
<path d="M3554 4218 c9 -52 10 -54 43 -42 36 12 40 32 8 40 -20 5 -25 11 -22
25 4 14 0 19 -15 19 -19 0 -20 -4 -14 -42z"/>
<path d="M3695 4239 c-10 -15 3 -25 16 -12 7 7 7 13 1 17 -6 3 -14 1 -17 -5z"/>
<path d="M4157 4204 c-8 -8 1 -24 14 -24 5 0 9 7 9 15 0 15 -12 20 -23 9z"/>
<path d="M4013 4175 c-3 -9 2 -24 11 -34 21 -23 20 -39 -3 -77 l-19 -32 24
-11 c30 -13 31 -29 2 -33 -24 -3 -26 -17 -12 -85 5 -29 10 -33 38 -33 43 0 52
11 25 31 l-22 17 21 11 c19 10 20 15 11 33 -8 15 -8 26 2 45 10 19 10 28 1 44
-10 16 -9 22 8 39 21 21 27 50 10 50 -6 0 -15 -11 -20 -25 -15 -39 -20 -30
-13 25 l6 50 -32 0 c-19 0 -34 -6 -38 -15z"/>
<path d="M3724 4158 c7 -30 -2 -36 -22 -16 -9 9 -15 9 -24 0 -9 -9 -8 -17 2
-37 15 -28 8 -44 -12 -27 -7 5 -25 8 -40 5 -21 -4 -28 -11 -28 -29 0 -27 17
-41 33 -25 6 6 28 11 49 11 32 0 41 5 58 33 22 35 20 72 -7 97 -14 13 -15 12
-9 -12z"/>
<path d="M4186 4111 c-4 -5 -2 -12 3 -15 5 -4 12 -2 15 3 4 5 2 12 -3 15 -5 4
-12 2 -15 -3z"/>
<path d="M4645 4038 c-3 -8 -1 -28 5 -44 10 -26 13 -27 21 -11 13 22 8 59 -8
65 -7 2 -15 -3 -18 -10z"/>
<path d="M3870 4026 c0 -20 13 -27 30 -15 13 8 13 10 0 19 -21 14 -30 12 -30
-4z"/>
<path d="M4302 4031 c2 -7 7 -12 11 -12 12 1 9 15 -3 20 -7 2 -11 -2 -8 -8z"/>
<path d="M3766 4015 c3 -8 -3 -31 -15 -50 -25 -43 -26 -64 -5 -109 16 -33 16
-36 -10 -79 -31 -54 -33 -77 -7 -77 41 0 51 11 51 57 0 24 7 58 16 75 15 28
14 31 -5 52 -18 19 -19 26 -8 49 6 15 17 27 24 27 22 0 23 17 2 44 -22 28 -52
36 -43 11z"/>
<path d="M3666 3975 c-11 -28 -7 -35 20 -35 21 0 25 4 22 22 -4 27 -33 36 -42
13z"/>
<path d="M3330 3960 c0 -11 7 -20 15 -20 8 0 19 9 25 20 9 18 8 20 -15 20 -18
0 -25 -5 -25 -20z"/>
<path d="M4267 3932 c-9 -10 -17 -24 -17 -31 0 -20 44 -8 48 13 6 28 -12 39
-31 18z"/>
<path d="M3310 3911 c-14 -27 -13 -31 10 -31 15 0 20 7 20 25 0 30 -15 33 -30
6z"/>
<path d="M3265 3899 c-8 -23 -1 -34 14 -24 13 8 15 45 2 45 -5 0 -13 -9 -16
-21z"/>
<path d="M3580 3872 c0 -34 25 -61 41 -45 16 16 7 44 -18 61 -22 14 -23 13
-23 -16z"/>
<path d="M3855 3840 c-3 -5 -3 -15 1 -21 3 -6 2 -14 -4 -18 -6 -3 -14 -19 -18
-35 -6 -24 -4 -27 12 -24 11 2 20 13 22 28 2 14 10 29 18 33 19 11 18 33 -2
41 -21 8 -22 8 -29 -4z"/>
<path d="M4095 3810 c-4 -6 -3 -16 3 -22 6 -6 12 -6 17 2 4 6 3 16 -3 22 -6 6
-12 6 -17 -2z"/>
<path d="M3907 3793 c-11 -11 -8 -21 10 -27 17 -7 36 12 27 26 -6 10 -28 10
-37 1z"/>
<path d="M4344 3716 c-20 -15 -15 -20 31 -28 21 -4 22 -10 6 -73 -12 -46 -10
-49 21 -42 21 6 23 11 20 59 -4 84 -10 98 -35 98 -13 0 -32 -6 -43 -14z"/>
<path d="M3640 3680 c0 -5 5 -10 10 -10 6 0 10 5 10 10 0 6 -4 10 -10 10 -5 0
-10 -4 -10 -10z"/>
<path d="M3840 3401 c0 -12 6 -21 16 -21 9 0 14 7 12 17 -5 25 -28 28 -28 4z"/>
<path d="M3901 3391 c-12 -8 -13 -15 -4 -34 10 -20 9 -26 -2 -31 -10 -4 -13
-14 -9 -35 5 -22 2 -32 -13 -40 -15 -7 -19 -18 -15 -40 6 -44 34 -42 30 1 -2
24 1 33 15 36 12 2 17 -3 17 -17 0 -22 29 -28 64 -15 24 9 19 34 -7 34 -13 0
-31 6 -41 13 -16 12 -16 14 -2 26 9 8 16 20 16 27 0 17 12 18 27 3 19 -19 33
-1 22 28 -17 46 -63 66 -98 44z"/>
<path d="M3790 3320 c0 -5 5 -10 10 -10 6 0 10 5 10 10 0 6 -4 10 -10 10 -5 0
-10 -4 -10 -10z"/>
<path d="M3717 3313 c-16 -15 -6 -34 15 -31 29 4 38 38 10 38 -10 0 -22 -3
-25 -7z"/>
<path d="M4110 3200 c0 -32 9 -37 28 -18 19 19 15 48 -8 48 -16 0 -20 -7 -20
-30z"/>
<path d="M3840 3170 c0 -19 3 -21 12 -12 9 9 9 15 0 24 -9 9 -12 7 -12 -12z"/>
<path d="M3950 3114 c0 -9 7 -14 17 -12 25 5 28 28 4 28 -12 0 -21 -6 -21 -16z"/>
<path d="M3820 3096 c0 -9 7 -16 16 -16 9 0 14 5 12 12 -6 18 -28 21 -28 4z"/>
<path d="M3905 3021 c-3 -5 -1 -12 5 -16 5 -3 10 1 10 9 0 18 -6 21 -15 7z"/>
<path d="M3820 3000 c0 -11 7 -20 15 -20 17 0 18 2 9 24 -9 23 -24 20 -24 -4z"/>
<path d="M3867 2983 c-13 -13 -7 -32 13 -38 29 -9 42 2 30 26 -11 19 -31 25
-43 12z"/>
<path d="M3817 2841 c3 -11 11 -22 19 -25 17 -6 17 -1 4 25 -14 25 -30 25 -23
0z"/>
<path d="M4036 2662 c-3 -6 -1 -14 5 -17 15 -10 25 3 12 16 -7 7 -13 7 -17 1z"/>
<path d="M3590 2631 c0 -12 6 -21 15 -21 8 0 15 4 15 9 0 5 -7 14 -15 21 -13
10 -15 9 -15 -9z"/>
<path d="M3930 2576 c0 -22 17 -28 24 -10 9 22 8 24 -9 24 -8 0 -15 -6 -15
-14z"/>
<path d="M3657 2343 c-13 -12 -7 -43 8 -43 9 0 15 9 15 25 0 24 -10 32 -23 18z"/>
<path d="M3722 2091 c2 -7 7 -12 11 -12 12 1 9 15 -3 20 -7 2 -11 -2 -8 -8z"/>
<path d="M3640 1964 c0 -9 5 -14 12 -12 18 6 21 28 4 28 -9 0 -16 -7 -16 -16z"/>
<path d="M3840 1965 c0 -8 7 -15 15 -15 8 0 15 7 15 15 0 8 -7 15 -15 15 -8 0
-15 -7 -15 -15z"/>
<path d="M3680 1616 c0 -24 16 -43 27 -32 8 8 -6 56 -17 56 -6 0 -10 -11 -10
-24z"/>
<path d="M3573 1583 c-17 -6 -16 -30 0 -36 20 -8 41 9 34 27 -7 16 -13 18 -34
9z"/>
<path d="M3305 811 c-3 -5 5 -22 19 -37 22 -26 25 -27 40 -12 22 22 21 25 -14
43 -34 18 -37 18 -45 6z"/>
<path d="M3320 675 c0 -20 5 -25 25 -25 27 0 33 18 13 38 -20 20 -38 14 -38
-13z"/>
<path d="M3270 660 c0 -13 5 -20 13 -17 6 2 12 10 12 17 0 7 -6 15 -12 18 -8
2 -13 -5 -13 -18z"/>
<path d="M2934 6649 c-7 -12 15 -31 28 -23 4 3 8 12 8 20 0 17 -26 19 -36 3z"/>
<path d="M2975 6469 c4 -24 8 -44 9 -45 0 -1 13 -4 29 -8 24 -6 27 -3 27 17 0
22 -26 53 -59 72 -11 6 -12 -1 -6 -36z"/>
<path d="M2970 6371 c-7 -13 -7 -22 0 -26 13 -8 30 3 30 20 0 23 -18 27 -30 6z"/>
<path d="M2794 6355 c-3 -8 -3 -19 0 -24 10 -16 36 -1 36 20 0 22 -28 26 -36
4z"/>
<path d="M2725 6151 c-8 -15 3 -31 21 -31 9 0 14 7 12 17 -4 20 -24 28 -33 14z"/>
<path d="M2512 5288 c7 -19 38 -22 38 -4 0 10 -9 16 -21 16 -12 0 -19 -5 -17
-12z"/>
<path d="M2437 5264 c-16 -16 -7 -44 14 -44 15 0 20 5 17 22 -3 22 -19 33 -31
22z"/>
<path d="M2426 5183 c-12 -12 -6 -53 8 -53 13 0 26 20 26 40 0 10 -26 20 -34
13z"/>
<path d="M2565 5130 c-8 -13 4 -32 16 -25 12 8 12 35 0 35 -6 0 -13 -4 -16
-10z"/>
<path d="M2263 4925 c-3 -9 -3 -18 0 -21 9 -9 27 6 27 22 0 19 -19 18 -27 -1z"/>
<path d="M2344 4775 c-8 -21 3 -47 19 -43 6 3 13 14 15 25 4 24 -26 40 -34 18z"/>
<path d="M2344 4585 c-3 -8 -3 -19 1 -25 11 -18 25 -11 25 15 0 27 -17 34 -26
10z"/>
<path d="M2097 4483 c-15 -14 -7 -43 12 -43 24 0 33 13 25 34 -6 16 -25 21
-37 9z"/>
<path d="M2206 4481 c-7 -11 3 -41 14 -41 27 0 39 13 29 31 -10 20 -34 25 -43
10z"/>
<path d="M2445 4439 c-4 -6 -4 -13 -1 -16 8 -8 36 5 36 17 0 13 -27 13 -35 -1z"/>
<path d="M2465 4250 c-3 -6 1 -13 10 -16 19 -8 30 0 20 15 -8 14 -22 14 -30 1z"/>
<path d="M2240 4205 c0 -16 27 -32 37 -21 7 7 -16 36 -28 36 -5 0 -9 -7 -9
-15z"/>
<path d="M2785 4206 c-19 -14 -19 -15 -1 -35 11 -12 25 -21 31 -21 19 0 29 51
13 61 -18 12 -21 11 -43 -5z"/>
<path d="M2950 4197 c0 -32 53 -51 63 -22 7 16 3 20 -35 29 -20 4 -28 3 -28
-7z"/>
<path d="M2212 4120 c2 -19 8 -34 13 -33 17 3 17 27 0 48 -15 19 -15 18 -13
-15z"/>
<path d="M2124 4125 c-3 -8 -3 -19 1 -25 9 -14 35 6 35 26 0 19 -29 18 -36 -1z"/>
<path d="M2390 3950 c0 -15 40 -32 58 -25 13 5 10 10 -17 21 -40 17 -41 17
-41 4z"/>
<path d="M2210 3933 c0 -5 7 -18 15 -29 15 -18 15 -18 13 5 -3 23 -28 44 -28
24z"/>
<path d="M2432 3861 c-1 -30 3 -39 13 -35 29 11 29 74 1 74 -9 0 -14 -14 -14
-39z"/>
<path d="M1873 3837 c5 -17 0 -26 -23 -39 -17 -9 -30 -22 -30 -28 0 -14 11
-12 34 5 11 8 29 15 39 15 18 0 46 25 47 41 0 7 -46 29 -62 29 -6 0 -8 -10 -5
-23z"/>
<path d="M1980 3740 c0 -23 15 -27 23 -6 3 8 -1 17 -9 20 -9 4 -14 -1 -14 -14z"/>
<path d="M2592 3697 c-30 -14 -24 -42 8 -42 16 0 26 6 28 19 5 26 -9 35 -36
23z"/>
<path d="M2602 3629 c-14 -5 -20 -14 -16 -20 3 -6 0 -15 -7 -20 -7 -4 -10 -12
-5 -16 5 -4 11 -2 13 5 3 6 16 12 29 12 17 0 24 6 24 19 0 26 -10 31 -38 20z"/>
<path d="M2436 3563 c-3 -3 -6 -17 -6 -30 0 -18 5 -23 25 -23 18 0 25 5 25 20
0 20 -32 44 -44 33z"/>
<path d="M2150 3087 c0 -30 6 -36 31 -30 28 8 21 47 -8 51 -18 3 -23 -1 -23
-21z"/>
<path d="M2340 3050 c0 -26 38 -47 46 -25 9 23 -3 45 -26 45 -13 0 -20 -7 -20
-20z"/>
<path d="M2400 2650 c0 -5 7 -10 16 -10 8 0 12 5 9 10 -3 6 -10 10 -16 10 -5
0 -9 -4 -9 -10z"/>
<path d="M2330 2380 c0 -5 7 -10 16 -10 8 0 12 5 9 10 -3 6 -10 10 -16 10 -5
0 -9 -4 -9 -10z"/>
<path d="M2280 2290 c0 -5 7 -10 15 -10 8 0 15 5 15 10 0 6 -7 10 -15 10 -8 0
-15 -4 -15 -10z"/>
<path d="M2002 1978 c6 -18 28 -21 28 -4 0 9 -7 16 -16 16 -9 0 -14 -5 -12
-12z"/>
<path d="M1952 1951 c2 -7 7 -12 11 -12 12 1 9 15 -3 20 -7 2 -11 -2 -8 -8z"/>
<path d="M1979 1849 c-16 -32 4 -47 25 -18 20 29 20 39 1 39 -8 0 -19 -9 -26
-21z"/>
<path d="M1910 1691 c0 -24 12 -32 30 -21 11 7 11 11 1 24 -18 22 -31 20 -31
-3z"/>
<path d="M5927 6363 c-13 -12 -7 -33 8 -33 8 0 15 9 15 20 0 20 -11 26 -23 13z"/>
<path d="M5870 6034 c-12 -31 -12 -34 -1 -34 15 0 41 30 41 46 0 24 -30 15
-40 -12z"/>
<path d="M5801 6004 c-15 -33 -14 -44 4 -44 14 0 35 29 35 48 0 22 -28 19 -39
-4z"/>
<path d="M5920 5975 c0 -18 5 -25 20 -25 22 0 26 20 8 38 -19 19 -28 14 -28
-13z"/>
<path d="M5990 5970 c-13 -9 -13 -10 0 -10 8 0 22 5 30 10 13 9 13 10 0 10 -8
0 -22 -5 -30 -10z"/>
<path d="M5844 5844 c-8 -44 4 -58 50 -58 26 0 36 -5 40 -20 5 -19 6 -19 26
-1 14 13 17 22 10 29 -5 5 -10 25 -10 43 0 23 -5 33 -15 33 -9 0 -15 -9 -15
-25 0 -20 -5 -25 -24 -25 -19 0 -26 7 -31 30 -9 40 -23 38 -31 -6z"/>
<path d="M5630 5670 c0 -11 7 -20 15 -20 8 0 15 6 15 14 0 8 -7 16 -15 20 -10
4 -15 -1 -15 -14z"/>
<path d="M5745 5460 c-10 -33 6 -48 34 -31 10 7 11 13 2 30 -15 26 -28 27 -36
1z"/>
<path d="M5812 5398 c-21 -21 -13 -28 28 -28 46 0 52 11 15 28 -31 15 -28 15
-43 0z"/>
<path d="M5670 5200 c0 -24 25 -27 34 -4 9 23 8 24 -14 24 -13 0 -20 -7 -20
-20z"/>
<path d="M5510 5144 c0 -8 5 -12 10 -9 6 4 8 11 5 16 -9 14 -15 11 -15 -7z"/>
<path d="M5484 5069 c-8 -14 18 -31 30 -19 9 9 0 30 -14 30 -5 0 -12 -5 -16
-11z"/>
<path d="M5390 4800 c0 -17 5 -21 28 -18 16 2 27 9 27 18 0 9 -11 16 -27 18
-23 3 -28 -1 -28 -18z"/>
<path d="M5710 4679 c0 -18 2 -19 15 -9 8 7 15 16 15 21 0 5 -7 9 -15 9 -9 0
-15 -9 -15 -21z"/>
<path d="M5314 4409 c-8 -14 11 -33 25 -25 6 4 11 14 11 22 0 16 -26 19 -36 3z"/>
<path d="M5446 4341 c-4 -7 -5 -15 -2 -18 9 -9 19 4 14 18 -4 11 -6 11 -12 0z"/>
<path d="M5090 4326 c0 -19 26 -27 39 -12 13 15 4 26 -21 26 -10 0 -18 -6 -18
-14z"/>
<path d="M5477 4334 c-8 -8 1 -24 14 -24 5 0 9 7 9 15 0 15 -12 20 -23 9z"/>
<path d="M5295 4120 c-18 -19 -18 -22 -2 -38 22 -22 51 -6 55 32 4 33 -26 36
-53 6z"/>
<path d="M5047 4119 c-13 -8 -15 -14 -7 -30 12 -22 40 -26 40 -5 0 8 3 21 6
30 7 18 -12 21 -39 5z"/>
<path d="M5495 4090 c4 -6 11 -8 16 -5 14 9 11 15 -7 15 -8 0 -12 -5 -9 -10z"/>
<path d="M5124 4055 c-16 -13 -17 -16 -4 -25 21 -14 28 -13 39 9 17 31 -3 40
-35 16z"/>
<path d="M5446 4035 c-3 -9 0 -15 9 -15 8 0 15 7 15 15 0 8 -4 15 -9 15 -5 0
-11 -7 -15 -15z"/>
<path d="M5965 4040 c-3 -5 1 -10 10 -10 9 0 13 5 10 10 -3 6 -8 10 -10 10 -2
0 -7 -4 -10 -10z"/>
<path d="M5378 4010 c-16 -15 -28 -33 -28 -39 0 -6 -6 -11 -14 -11 -22 0 -27
-15 -16 -45 10 -26 11 -27 35 -11 13 9 29 16 35 16 15 0 12 -32 -5 -54 -23
-31 -18 -39 19 -33 24 4 39 1 47 -9 6 -8 14 -12 17 -10 2 3 -3 12 -12 21 -9 9
-16 30 -16 46 0 22 5 29 20 29 13 0 20 7 20 20 0 16 -7 20 -34 20 -48 0 -64
23 -42 61 21 36 10 35 -26 -1z"/>
<path d="M5073 4015 c-3 -9 -3 -18 0 -21 9 -9 27 6 27 22 0 19 -19 18 -27 -1z"/>
<path d="M5240 3914 c0 -8 5 -12 10 -9 6 4 8 11 5 16 -9 14 -15 11 -15 -7z"/>
<path d="M5512 3908 c6 -18 28 -21 28 -4 0 9 -7 16 -16 16 -9 0 -14 -5 -12
-12z"/>
<path d="M5523 3834 c-8 -21 13 -42 28 -27 13 13 5 43 -11 43 -6 0 -13 -7 -17
-16z"/>
<path d="M5780 3720 c-11 -7 -11 -11 -1 -24 17 -20 51 -21 51 -1 0 19 -32 36
-50 25z"/>
<path d="M5660 3710 c0 -12 35 -31 44 -23 15 15 4 33 -19 33 -14 0 -25 -4 -25
-10z"/>
<path d="M5380 3570 c-10 -6 -11 -13 -5 -19 6 -6 16 -7 25 -1 10 6 11 13 5 19
-6 6 -16 7 -25 1z"/>
<path d="M5332 3541 c-8 -5 -12 -22 -10 -42 3 -33 3 -34 16 -11 17 29 12 65
-6 53z"/>
<path d="M5576 3173 c-3 -3 -3 -10 0 -14 7 -12 34 -11 34 0 0 11 -26 22 -34
14z"/>
<path d="M5601 3126 c-11 -13 -9 -17 14 -26 35 -13 67 -4 63 18 -4 23 -61 28
-77 8z"/>
<path d="M5495 3080 c3 -5 8 -10 11 -10 2 0 4 5 4 10 0 6 -5 10 -11 10 -5 0
-7 -4 -4 -10z"/>
<path d="M5287 2825 c-4 -8 -2 -17 3 -20 6 -4 10 3 10 14 0 25 -6 27 -13 6z"/>
<path d="M5400 2745 c0 -8 7 -15 15 -15 8 0 15 7 15 15 0 8 -7 15 -15 15 -8 0
-15 -7 -15 -15z"/>
<path d="M5207 2710 c-18 -26 -12 -50 13 -50 25 0 36 38 17 57 -13 13 -16 12
-30 -7z"/>
<path d="M5426 2701 c-10 -16 6 -42 21 -37 8 3 17 6 19 6 12 0 2 29 -12 34
-20 8 -22 8 -28 -3z"/>
<path d="M5340 2675 c0 -8 4 -15 9 -15 5 0 11 7 15 15 3 9 0 15 -9 15 -8 0
-15 -7 -15 -15z"/>
<path d="M5350 2585 c0 -16 6 -25 15 -25 8 0 15 9 15 19 0 10 -7 21 -15 25
-11 4 -15 -1 -15 -19z"/>
<path d="M5500 2545 c-7 -9 -10 -18 -7 -21 10 -11 37 5 37 21 0 19 -14 19 -30
0z"/>
<path d="M5230 2510 c0 -13 5 -20 13 -17 6 2 12 10 12 17 0 7 -6 15 -12 18 -8
2 -13 -5 -13 -18z"/>
</g>
</svg>
